# xmcd
#
# Track frame offsets: 
#        150
#        18825
#        25300
#        42203
#        45520
#        47760
#        57015
#        83015
#        93930
#        115525
#        135908
#        166403
#        181970
#        219193
#        226028
#        247363
#
# Disc length: 3607 seconds
#
# Revision: 0
# Processed by: cddbd v1.5.2PL0 Copyright (c) Steve Scherf et al.
# Submitted via: ExactAudioCopy v1.0b3
#
DISCID=bb0e1510
DTITLE=Kalle Sändare - Boxen e' klar - CD 16 - Lättlurat svårlurat
DYEAR=2014
DGENRE=Comedy
TTITLE0=Arboga granleverans
TTITLE1=Lena-Maria
TTITLE2=Arboga granleverans II
TTITLE3=Julpizza
TTITLE4=Arboga granleverans III
TTITLE5=Bilbana till salu
TTITLE6=Överraskningstomten
TTITLE7=Grovbarriga granar
TTITLE8=Lasse Holm
TTITLE9=Julost
TTITLE10=Eddie Meduza
TTITLE11=Kapten Svärd
TTITLE12=Gamla julbonader
TTITLE13=Thailändskt julbord
TTITLE14=Kroppsverkstan
TTITLE15=Tomteland
EXTD=
EXTT0=
EXTT1=
EXTT2=
EXTT3=
EXTT4=
EXTT5=
EXTT6=
EXTT7=
EXTT8=
EXTT9=
EXTT10=
EXTT11=
EXTT12=
EXTT13=
EXTT14=
EXTT15=
PLAYORDER=
